# xmcd
#
# Track frame offsets: 
#        150
#        21153
#        38306
#        66623
#        91045
#        112126
#        136741
#        158115
#        169938
#        188449
#        198341
#        217903
#        236626
#        262463
#
# Disc length: 3740 seconds
#
# Revision: 3
# Processed by: cddbd v1.5.2PL0 Copyright (c) Steve Scherf et al.
# Submitted via: ExactAudioCopy v1.0b4
#
DISCID=bf0e9a0e
DTITLE=Yasmine - Vandaag (het morgen van gisteren)
DYEAR=2004
DGENRE=Ballad
TTITLE0=M'n gasten
TTITLE1=Dans me
TTITLE2=Eerst nemen we Manhattan
TTITLE3=Het grote vuur
TTITLE4=Yasmine and Thé Lau - De partizane (duet with Thé Lau)
TTITLE5=Je eeuwige regenjas
TTITLE6=In m'n eigen huis
TTITLE7=Yasmine and Henk Hofstede - Je weet wie ik ben (duet with Henk
TTITLE7=Hofstede)
TTITLE8=Ik ben je man 
TTITLE9=Yasmine and Kris de Bruyne - Wie door vuur (duet with Kris de 
TTITLE9=Bruyne)
TTITLE10=Zo zeg je geen vaarwel
TTITLE11=Het venster
TTITLE12=Wervelwind
TTITLE13=Ik doe het voor de schoonheid
EXTD=YEAR: 2004
EXTT0=
EXTT1=
EXTT2=
EXTT3=
EXTT4=
EXTT5=
EXTT6=
EXTT7=
EXTT8=
EXTT9=
EXTT10=
EXTT11=
EXTT12=
EXTT13=
PLAYORDER=
